<svg preserveAspectRatio="xMinYMid" version="1.1" xmlns="http://www.w3.org/2000/svg" xmlns:xlink="http://www.w3.org/1999/xlink" viewBox="0 0 254 60">
    <g transform="matrix(0.989221,0,0,0.989221,0,0)">
        <path d="M80.668,28.026L80.668,10.459L87.386,10.459C89.699,10.459 91.381,10.849 92.432,11.629C93.481,12.409 94.007,13.53 94.007,14.993C94.007,16.045 93.798,16.898 93.38,17.555C92.962,18.211 92.343,18.705 91.521,19.032C92.44,19.345 93.14,19.817 93.625,20.449C94.109,21.082 94.35,21.94 94.35,23.024C94.35,24.618 93.805,25.85 92.714,26.721C91.622,27.592 89.945,28.026 87.68,28.026L80.666,28.026L80.668,28.026ZM83.819,13.071L83.819,17.727L87.51,17.727C88.593,17.727 89.417,17.538 89.983,17.159C90.549,16.781 90.831,16.173 90.831,15.336C90.831,14.564 90.568,13.993 90.043,13.623C89.519,13.253 88.665,13.069 87.484,13.069L83.817,13.069L83.819,13.071ZM83.819,20.339L83.819,25.267L87.265,25.267C88.643,25.267 89.62,25.054 90.193,24.627C90.767,24.2 91.055,23.577 91.055,22.754C91.055,21.932 90.748,21.285 90.133,20.907C89.517,20.528 88.577,20.339 87.314,20.339L83.819,20.339Z" style="fill:rgb(255,67,112);fill-rule:nonzero;"/>
        <path d="M106.239,25.192C105.764,26.113 105.045,26.876 104.085,27.484C103.125,28.092 101.916,28.396 100.455,28.396C98.994,28.396 97.776,28.051 96.997,27.361C96.218,26.672 95.828,25.751 95.828,24.601C95.828,23.813 95.991,23.127 96.32,22.545C96.648,21.962 97.1,21.489 97.673,21.128C97.871,20.996 98.071,20.881 98.275,20.783C98.481,20.685 98.682,20.603 98.879,20.537C99.289,20.388 99.782,20.258 100.355,20.143C100.929,20.028 101.659,19.905 102.545,19.773C103.808,19.61 104.714,19.409 105.264,19.17C105.814,18.932 106.089,18.525 106.089,17.951C106.089,17.377 105.868,16.892 105.425,16.546C104.981,16.202 104.21,16.029 103.112,16.029C101.946,16.029 101.086,16.276 100.527,16.769C99.969,17.262 99.665,17.96 99.617,18.863L96.293,18.863C96.408,17.254 97.039,15.96 98.188,14.982C99.337,14.005 100.921,13.517 102.938,13.517C103.709,13.517 104.399,13.566 105.005,13.665C105.612,13.763 106.145,13.92 106.604,14.133C107.523,14.527 108.183,15.094 108.586,15.834C108.987,16.573 109.19,17.451 109.19,18.47L109.19,28.029L106.58,28.029L106.236,25.196L106.239,25.192ZM102.855,25.746C103.257,25.64 103.631,25.48 103.975,25.265C104.664,24.838 105.193,24.292 105.563,23.627C105.932,22.962 106.116,22.293 106.116,21.619L106.116,20.856C105.821,21.07 105.431,21.249 104.947,21.398C104.463,21.547 103.901,21.668 103.262,21.768C102.408,21.899 101.764,22.026 101.33,22.149C100.895,22.273 100.514,22.442 100.187,22.654C99.907,22.835 99.698,23.048 99.559,23.294C99.419,23.541 99.35,23.82 99.35,24.132C99.35,24.723 99.534,25.167 99.903,25.463C100.273,25.758 100.826,25.907 101.565,25.907C102.024,25.907 102.456,25.854 102.857,25.746L102.855,25.746Z" style="fill:rgb(255,67,112);fill-rule:nonzero;"/>
        <path d="M114.975,28.026L111.726,28.026L111.726,13.86L114.459,13.86L114.754,16.693C115.132,15.724 115.723,14.952 116.526,14.378C117.329,13.804 118.339,13.515 119.554,13.515C121.259,13.515 122.56,14.04 123.454,15.092C124.348,16.145 124.795,17.548 124.795,19.306L124.795,28.028L121.546,28.028L121.546,20.094C121.546,18.944 121.325,18.029 120.881,17.347C120.438,16.665 119.643,16.323 118.494,16.323C117.345,16.323 116.411,16.714 115.836,17.494C115.26,18.274 114.974,19.321 114.974,20.635L114.974,28.026L114.975,28.026Z" style="fill:rgb(255,67,112);fill-rule:nonzero;"/>
        <path d="M127.258,11.863C126.929,11.551 126.765,10.994 126.765,10.188C126.765,9.383 126.946,8.849 127.307,8.537C127.668,8.224 128.201,8.069 128.906,8.069C129.611,8.069 130.144,8.226 130.505,8.537C130.866,8.849 131.047,9.4 131.047,10.188C131.047,10.977 130.87,11.49 130.517,11.826C130.164,12.162 129.626,12.331 128.904,12.331C128.133,12.331 127.583,12.176 127.255,11.863L127.258,11.863ZM127.233,28.026L127.233,13.86L130.505,13.86L130.505,28.026L127.233,28.026Z" style="fill:rgb(255,67,112);fill-rule:nonzero;"/>
        <path d="M130.335,33.841L130.335,30.834L131.048,30.834C131.36,30.834 131.635,30.823 131.873,30.797C132.111,30.772 132.312,30.737 132.477,30.686C132.804,30.571 133.022,30.336 133.13,29.983C133.236,29.631 133.29,29.068 133.29,28.296L133.29,13.858L136.44,13.858L136.44,28.69C136.44,29.725 136.369,30.578 136.23,31.252C136.09,31.925 135.832,32.451 135.454,32.829C135.093,33.19 134.581,33.449 133.916,33.606C133.251,33.761 132.403,33.841 131.369,33.841L130.335,33.841ZM133.238,11.863C132.909,11.551 132.745,10.994 132.745,10.188C132.745,9.383 132.926,8.849 133.287,8.537C133.648,8.224 134.181,8.069 134.886,8.069C135.591,8.069 136.124,8.226 136.485,8.537C136.846,8.849 137.027,9.4 137.027,10.188C137.027,10.977 136.85,11.49 136.497,11.826C136.144,12.162 135.606,12.331 134.884,12.331C134.113,12.331 133.563,12.176 133.235,11.863L133.238,11.863Z" style="fill:rgb(255,67,112);fill-rule:nonzero;"/>
        <path d="M148.349,25.192C147.873,26.113 147.155,26.876 146.195,27.484C145.235,28.092 144.026,28.396 142.565,28.396C141.104,28.396 139.886,28.051 139.107,27.361C138.327,26.672 137.938,25.751 137.938,24.601C137.938,23.813 138.101,23.127 138.43,22.545C138.757,21.962 139.209,21.489 139.783,21.128C139.98,20.996 140.181,20.881 140.385,20.783C140.591,20.685 140.792,20.603 140.989,20.537C141.399,20.388 141.892,20.258 142.465,20.143C143.039,20.028 143.769,19.905 144.655,19.773C145.918,19.61 146.824,19.409 147.374,19.17C147.924,18.932 148.199,18.525 148.199,17.951C148.199,17.377 147.978,16.892 147.534,16.546C147.091,16.202 146.32,16.029 145.222,16.029C144.056,16.029 143.196,16.276 142.637,16.769C142.079,17.262 141.775,17.96 141.726,18.863L138.403,18.863C138.518,17.254 139.149,15.96 140.297,14.982C141.446,14.005 143.03,13.517 145.048,13.517C145.819,13.517 146.509,13.566 147.114,13.665C147.722,13.763 148.255,13.92 148.713,14.133C149.633,14.527 150.292,15.094 150.696,15.834C151.097,16.573 151.299,17.451 151.299,18.47L151.299,28.029L148.69,28.029L148.346,25.196L148.349,25.192ZM144.965,25.746C145.367,25.64 145.741,25.48 146.085,25.265C146.773,24.838 147.303,24.292 147.673,23.627C148.042,22.962 148.226,22.293 148.226,21.619L148.226,20.856C147.931,21.07 147.541,21.249 147.057,21.398C146.573,21.547 146.011,21.668 145.372,21.768C144.518,21.899 143.874,22.026 143.44,22.149C143.005,22.273 142.624,22.442 142.296,22.654C142.016,22.835 141.807,23.048 141.669,23.294C141.529,23.541 141.46,23.82 141.46,24.132C141.46,24.723 141.644,25.167 142.013,25.463C142.382,25.758 142.936,25.907 143.675,25.907C144.134,25.907 144.565,25.854 144.967,25.746L144.965,25.746Z" style="fill:rgb(255,67,112);fill-rule:nonzero;"/>
        <path d="M152.583,33.324L152.583,30.515L154.233,30.515C154.545,30.515 154.827,30.498 155.082,30.466C155.336,30.433 155.552,30.392 155.734,30.343C156.112,30.228 156.428,30.014 156.682,29.703C156.937,29.391 157.204,28.931 157.482,28.323L157.752,27.658L151.895,13.861L155.341,13.861L159.181,23.445L159.304,24.085L159.476,23.468L163.217,13.859L166.613,13.859L160.41,28.84C160,29.826 159.619,30.613 159.267,31.206C158.914,31.797 158.533,32.25 158.123,32.56C157.696,32.873 157.175,33.077 156.561,33.177C155.945,33.275 155.162,33.325 154.211,33.325L152.587,33.325L152.583,33.324Z" style="fill:rgb(255,67,112);fill-rule:nonzero;"/>
        <path d="M93.123,52.164L80.669,52.164L80.669,34.597L92.705,34.597L92.705,37.381L83.795,37.381L83.795,41.89L91.35,41.89L91.35,44.699L83.795,44.699L83.795,49.282L93.123,49.282L93.123,52.164Z" style="fill:rgb(255,67,112);fill-rule:nonzero;"/>
        <path d="M98.289,52.164L95.04,52.164L95.04,37.998L97.773,37.998L98.068,40.832C98.446,39.862 99.036,39.09 99.839,38.516C100.642,37.942 101.652,37.653 102.867,37.653C104.572,37.653 105.873,38.179 106.767,39.231C107.661,40.283 108.108,41.686 108.108,43.444L108.108,52.166L104.859,52.166L104.859,44.233C104.859,43.083 104.638,42.167 104.195,41.485C103.751,40.803 102.956,40.463 101.808,40.463C100.659,40.463 99.724,40.853 99.149,41.634C98.574,42.414 98.287,43.461 98.287,44.775L98.287,52.166L98.289,52.164Z" style="fill:rgb(255,67,112);fill-rule:nonzero;"/>
        <path d="M118.348,52.165L116.526,52.165C115.87,52.165 115.283,52.12 114.767,52.03C114.25,51.941 113.819,51.812 113.474,51.648C112.769,51.287 112.28,50.696 112.01,49.875C111.74,49.054 111.604,47.928 111.604,46.499L111.604,40.857L108.847,40.857L108.847,38.123L110.102,38.123C110.332,38.123 110.529,38.112 110.693,38.086C110.856,38.061 110.996,38.024 111.111,37.975C111.34,37.86 111.504,37.654 111.604,37.358C111.701,37.063 111.767,36.627 111.801,36.053C111.818,35.741 111.83,35.405 111.838,35.043C111.847,34.682 111.85,34.395 111.85,34.18L114.606,34.18L114.606,37.998L118.348,37.998L118.348,40.856L114.606,40.856L114.606,45.956C114.606,46.415 114.623,46.822 114.655,47.175C114.687,47.528 114.738,47.82 114.804,48.05C114.918,48.509 115.173,48.81 115.566,48.95C115.959,49.09 116.551,49.159 117.337,49.159L118.346,49.159L118.346,52.165L118.348,52.165Z" style="fill:rgb(255,67,112);fill-rule:nonzero;"/>
        <path d="M130.79,51.327C129.65,52.132 128.152,52.534 126.298,52.534C123.92,52.534 122.138,51.889 120.957,50.6C119.777,49.312 119.186,47.574 119.186,45.389L119.186,45.045C119.186,44.29 119.26,43.587 119.407,42.939C119.556,42.29 119.777,41.686 120.072,41.129C120.662,40.027 121.495,39.175 122.57,38.567C123.645,37.959 124.92,37.655 126.398,37.655C127.612,37.655 128.658,37.852 129.535,38.246C130.412,38.639 131.131,39.175 131.689,39.847C132.248,40.521 132.658,41.284 132.919,42.138C133.181,42.993 133.312,43.871 133.312,44.774L133.312,46.277L122.384,46.277C122.516,47.427 122.929,48.314 123.628,48.939C124.324,49.564 125.256,49.874 126.421,49.874C127.275,49.874 127.963,49.711 128.488,49.381C129.012,49.054 129.399,48.584 129.645,47.976L133.115,47.976C132.705,49.405 131.929,50.523 130.789,51.327L130.79,51.327ZM123.714,41.139C123.024,41.755 122.59,42.621 122.41,43.738L130.089,43.738C129.974,42.653 129.616,41.795 129.017,41.162C128.419,40.531 127.553,40.213 126.421,40.213C125.289,40.213 124.404,40.521 123.714,41.137L123.714,41.139Z" style="fill:rgb(255,67,112);fill-rule:nonzero;"/>
        <path d="M135.256,52.166L135.256,37.998L137.865,37.998L138.284,41.325C138.562,40.158 139.083,39.292 139.846,38.726C140.608,38.158 141.654,37.877 142.983,37.877L143.943,37.877L143.943,41.153L142.54,41.153C141.981,41.153 141.489,41.19 141.064,41.264C140.637,41.338 140.276,41.448 139.981,41.597C139.39,41.877 138.984,42.34 138.763,42.988C138.542,43.637 138.43,44.512 138.43,45.612L138.43,52.166L135.256,52.166Z" style="fill:rgb(255,67,112);fill-rule:nonzero;"/>
        <path d="M154.503,52.165L152.681,52.165C152.025,52.165 151.438,52.12 150.922,52.03C150.405,51.941 149.974,51.812 149.63,51.648C148.924,51.287 148.435,50.696 148.165,49.875C147.895,49.054 147.759,47.928 147.759,46.499L147.759,40.857L145.002,40.857L145.002,38.123L146.257,38.123C146.487,38.123 146.684,38.112 146.848,38.086C147.011,38.061 147.151,38.024 147.266,37.975C147.496,37.86 147.659,37.654 147.759,37.358C147.857,37.063 147.922,36.627 147.956,36.053C147.973,35.741 147.985,35.405 147.993,35.043C148.002,34.682 148.005,34.395 148.005,34.18L150.761,34.18L150.761,37.998L154.503,37.998L154.503,40.856L150.761,40.856L150.761,45.956C150.761,46.415 150.778,46.822 150.81,47.175C150.842,47.528 150.893,47.82 150.959,48.05C151.073,48.509 151.328,48.81 151.721,48.95C152.114,49.09 152.706,49.159 153.492,49.159L154.501,49.159L154.501,52.165L154.503,52.165Z" style="fill:rgb(255,67,112);fill-rule:nonzero;"/>
        <path d="M166.044,49.331C165.569,50.251 164.85,51.014 163.89,51.622C162.93,52.23 161.721,52.534 160.26,52.534C158.799,52.534 157.581,52.19 156.802,51.499C156.023,50.81 155.633,49.89 155.633,48.74C155.633,47.951 155.797,47.265 156.125,46.683C156.453,46.1 156.905,45.627 157.478,45.266C157.676,45.134 157.876,45.019 158.081,44.921C158.286,44.823 158.487,44.741 158.685,44.675C159.094,44.526 159.587,44.396 160.161,44.281C160.734,44.167 161.465,44.043 162.35,43.911C163.614,43.748 164.519,43.547 165.069,43.309C165.619,43.071 165.894,42.664 165.894,42.089C165.894,41.515 165.673,41.031 165.23,40.684C164.786,40.34 164.015,40.168 162.917,40.168C161.751,40.168 160.891,40.414 160.333,40.907C159.774,41.4 159.471,42.098 159.422,43.001L156.098,43.001C156.213,41.392 156.844,40.098 157.993,39.121C159.142,38.143 160.726,37.655 162.743,37.655C163.514,37.655 164.204,37.704 164.81,37.803C165.417,37.901 165.95,38.058 166.409,38.271C167.328,38.665 167.988,39.232 168.391,39.972C168.792,40.711 168.995,41.59 168.995,42.608L168.995,52.168L166.385,52.168L166.041,49.334L166.044,49.331ZM162.661,49.886C163.062,49.78 163.436,49.619 163.781,49.407C164.469,48.979 164.999,48.434 165.368,47.769C165.737,47.103 165.921,46.435 165.921,45.761L165.921,44.997C165.626,45.212 165.236,45.391 164.752,45.539C164.268,45.688 163.706,45.811 163.067,45.909C162.213,46.041 161.569,46.168 161.136,46.291C160.7,46.414 160.319,46.583 159.992,46.796C159.712,46.977 159.503,47.189 159.364,47.436C159.224,47.682 159.155,47.961 159.155,48.274C159.155,48.865 159.339,49.309 159.708,49.604C160.078,49.9 160.631,50.048 161.37,50.048C161.829,50.048 162.261,49.994 162.662,49.888L162.661,49.886Z" style="fill:rgb(255,67,112);fill-rule:nonzero;"/>
        <path d="M171.631,36.002C171.303,35.69 171.139,35.132 171.139,34.327C171.139,33.521 171.319,32.988 171.68,32.675C172.041,32.363 172.574,32.208 173.28,32.208C173.985,32.208 174.518,32.363 174.879,32.675C175.24,32.988 175.42,33.538 175.42,34.327C175.42,35.116 175.243,35.629 174.891,35.965C174.538,36.303 174,36.47 173.278,36.47C172.507,36.47 171.957,36.315 171.628,36.002L171.631,36.002ZM171.606,52.165L171.606,37.998L174.879,37.998L174.879,52.165L171.606,52.165Z" style="fill:rgb(255,67,112);fill-rule:nonzero;"/>
        <path d="M180.812,52.164L177.563,52.164L177.563,37.998L180.296,37.998L180.591,40.832C180.969,39.862 181.559,39.09 182.362,38.516C183.165,37.942 184.176,37.653 185.39,37.653C187.096,37.653 188.396,38.179 189.29,39.231C190.184,40.283 190.631,41.686 190.631,43.444L190.631,52.166L187.382,52.166L187.382,44.233C187.382,43.083 187.161,42.167 186.718,41.485C186.274,40.803 185.48,40.463 184.331,40.463C183.182,40.463 182.247,40.853 181.672,41.634C181.097,42.414 180.81,43.461 180.81,44.775L180.81,52.166L180.812,52.164Z" style="fill:rgb(255,67,112);fill-rule:nonzero;"/>
        <path d="M196.417,52.164L193.192,52.164L193.192,37.998L195.899,37.998L196.194,40.585C196.572,39.698 197.134,38.987 197.88,38.454C198.625,37.92 199.556,37.653 200.673,37.653C201.888,37.653 202.854,37.917 203.578,38.442C204.3,38.967 204.816,39.69 205.128,40.61C205.489,39.707 206.054,38.989 206.827,38.454C207.598,37.92 208.558,37.653 209.706,37.653C211.363,37.653 212.615,38.155 213.46,39.156C214.305,40.158 214.727,41.537 214.727,43.295L214.727,52.164L211.503,52.164L211.503,44.182C211.503,43.066 211.282,42.166 210.838,41.483C210.395,40.801 209.632,40.462 208.549,40.462C207.466,40.462 206.744,40.806 206.285,41.497C205.827,42.186 205.597,43.066 205.597,44.133L205.597,52.164L202.397,52.164L202.397,44.059C202.397,43.731 202.377,43.414 202.336,43.11C202.296,42.806 202.225,42.515 202.127,42.235C201.964,41.693 201.672,41.262 201.253,40.941C200.835,40.62 200.256,40.462 199.518,40.462C198.467,40.462 197.687,40.843 197.18,41.607C196.67,42.37 196.417,43.359 196.417,44.575L196.417,52.164Z" style="fill:rgb(255,67,112);fill-rule:nonzero;"/>
        <path d="M228.226,51.327C227.085,52.132 225.587,52.534 223.733,52.534C221.355,52.534 219.573,51.889 218.393,50.6C217.212,49.312 216.621,47.574 216.621,45.389L216.621,45.045C216.621,44.29 216.696,43.587 216.842,42.939C216.991,42.29 217.212,41.686 217.507,41.129C218.097,40.027 218.931,39.175 220.005,38.567C221.08,37.959 222.355,37.655 223.833,37.655C225.047,37.655 226.093,37.852 226.97,38.246C227.848,38.639 228.566,39.175 229.125,39.847C229.683,40.521 230.093,41.284 230.354,42.138C230.616,42.993 230.747,43.871 230.747,44.774L230.747,46.277L219.82,46.277C219.951,47.427 220.365,48.314 221.063,48.939C221.76,49.564 222.691,49.874 223.856,49.874C224.71,49.874 225.398,49.711 225.923,49.381C226.448,49.054 226.834,48.584 227.08,47.976L230.55,47.976C230.14,49.405 229.364,50.523 228.224,51.327L228.226,51.327ZM221.151,41.139C220.461,41.755 220.027,42.621 219.847,43.738L227.525,43.738C227.411,42.653 227.053,41.795 226.454,41.162C225.855,40.531 224.99,40.213 223.858,40.213C222.726,40.213 221.841,40.521 221.151,41.137L221.151,41.139Z" style="fill:rgb(255,67,112);fill-rule:nonzero;"/>
        <path d="M235.941,52.164L232.692,52.164L232.692,37.998L235.425,37.998L235.72,40.832C236.098,39.862 236.688,39.09 237.491,38.516C238.294,37.942 239.305,37.653 240.519,37.653C242.225,37.653 243.525,38.179 244.42,39.231C245.314,40.283 245.761,41.686 245.761,43.444L245.761,52.166L242.512,52.166L242.512,44.233C242.512,43.083 242.291,42.167 241.847,41.485C241.403,40.803 240.609,40.463 239.46,40.463C238.311,40.463 237.377,40.853 236.801,41.634C236.226,42.414 235.939,43.461 235.939,44.775L235.939,52.166L235.941,52.164Z" style="fill:rgb(255,67,112);fill-rule:nonzero;"/>
        <path d="M256,52.165L254.178,52.165C253.522,52.165 252.935,52.12 252.419,52.03C251.903,51.941 251.471,51.812 251.127,51.648C250.422,51.287 249.932,50.696 249.663,49.875C249.393,49.054 249.256,47.928 249.256,46.499L249.256,40.857L246.5,40.857L246.5,38.123L247.755,38.123C247.984,38.123 248.181,38.112 248.345,38.086C248.509,38.061 248.649,38.024 248.763,37.975C248.993,37.86 249.156,37.654 249.256,37.358C249.354,37.063 249.42,36.627 249.453,36.053C249.47,35.741 249.482,35.405 249.49,35.043C249.499,34.682 249.502,34.395 249.502,34.18L252.259,34.18L252.259,37.998L256,37.998L256,40.856L252.259,40.856L252.259,45.956C252.259,46.415 252.275,46.822 252.308,47.175C252.34,47.528 252.39,47.82 252.456,48.05C252.571,48.509 252.825,48.81 253.218,48.95C253.612,49.09 254.204,49.159 254.99,49.159L255.998,49.159L255.998,52.165L256,52.165Z" style="fill:rgb(255,67,112);fill-rule:nonzero;"/>
        <path d="M44.686,29.102L0,29.102L0,1.858C0,0.833 0.832,0 1.856,0L44.684,0C52.712,0 59.22,6.515 59.22,14.552C59.22,24.596 52.712,29.104 44.684,29.104L44.686,29.102Z" style="fill:rgb(255,67,112);fill-rule:nonzero;"/>
        <path d="M44.686,31.552L0,31.552L0,58.796C0,59.823 0.832,60.654 1.856,60.654L44.684,60.654C52.712,60.654 59.22,54.139 59.22,46.102C59.22,36.058 52.712,31.55 44.684,31.55L44.686,31.552Z" style="fill:rgb(255,67,112);fill-rule:nonzero;"/>
    </g>
</svg>
