<?xml version="1.0" encoding="utf-8"?>
<!-- Generator: Adobe Illustrator 23.0.4, SVG Export Plug-In . SVG Version: 6.00 Build 0)  -->
<svg version="1.1" id="Layer_1" xmlns="http://www.w3.org/2000/svg" xmlns:xlink="http://www.w3.org/1999/xlink" x="0px" y="0px"
	 viewBox="0 0 153.1 74.3" style="enable-background:new 0 0 153.1 74.3;" xml:space="preserve">
<style type="text/css">
	.st0{fill-rule:evenodd;clip-rule:evenodd;fill:#FFFFFF;}
	.st1{fill-rule:evenodd;clip-rule:evenodd;fill:#C9C9C9;}
</style>
<g>
	<path class="st0" d="M136.6,55c-0.6-0.8-1.5-1.3-2.6-1.3c-0.4,0-0.7,0.1-1.1,0.2c-0.4,0.1-0.6,0.3-0.9,0.5
		c-0.3,0.2-0.5,0.5-0.6,0.7c-0.2,0.3-0.3,0.6-0.3,1.1c0,0.5,0.2,1.1,0.5,1.4c0.4,0.4,0.8,0.5,1.3,0.8c0.5,0.2,1.1,0.4,1.7,0.5
		c0.6,0.2,1.2,0.4,1.7,0.6c0.5,0.3,0.9,0.6,1.3,1.1c0.4,0.5,0.5,1.1,0.5,1.8c0,0.5-0.1,1.1-0.4,1.5c-0.3,0.5-0.6,0.9-1.1,1.2
		c-0.5,0.4-0.9,0.5-1.5,0.7c-0.5,0.2-1.1,0.3-1.6,0.3c-0.8,0-1.6-0.2-2.4-0.5c-0.7-0.3-1.4-0.8-1.9-1.5l0,0l1.3-0.8
		c0.3,0.5,0.7,0.8,1.3,1.2c0.5,0.3,1.2,0.5,1.9,0.5c0.4,0,0.7-0.1,1.1-0.2c0.4-0.1,0.6-0.3,0.9-0.5c0.3-0.2,0.5-0.5,0.7-0.7
		c0.2-0.3,0.3-0.6,0.3-1c0-0.5-0.1-0.8-0.3-1.1c-0.2-0.3-0.5-0.5-0.8-0.7c-0.4-0.2-0.7-0.4-1.1-0.5c-0.5-0.2-0.8-0.3-1.3-0.4
		c-0.5-0.1-0.9-0.3-1.3-0.5c-0.5-0.2-0.8-0.4-1.1-0.6c-0.4-0.3-0.6-0.6-0.8-1c-0.2-0.4-0.3-0.9-0.3-1.5c0-0.6,0.1-1.2,0.4-1.6
		c0.3-0.5,0.6-0.8,1-1.2c0.5-0.3,0.9-0.5,1.5-0.6c0.5-0.2,1.1-0.2,1.6-0.2c0.8,0,1.5,0.1,2.1,0.4c0.6,0.3,1.3,0.6,1.7,1.2l0,0
		L136.6,55L136.6,55L136.6,55z"/>
	<path class="st0" d="M119.9,58.6V54h2.5c0.6,0,1.2,0.1,1.5,0.2c0.5,0.1,0.8,0.3,1,0.5c0.3,0.2,0.5,0.5,0.5,0.7
		c0.1,0.3,0.2,0.5,0.2,0.9c0,0.4-0.1,0.6-0.2,0.9c-0.1,0.3-0.3,0.5-0.5,0.7c-0.3,0.2-0.6,0.4-1,0.5c-0.5,0.1-1,0.2-1.5,0.2H119.9
		L119.9,58.6z M123.8,59.7c1.1-0.1,2-0.5,2.6-1.1c0.6-0.6,0.9-1.4,0.9-2.3c0-1.2-0.4-2-1.2-2.6c-0.8-0.5-1.9-0.9-3.3-0.9h-4.2v13
		h1.4v-6h2.4l3.7,6.1h1.7L123.8,59.7L123.8,59.7z"/>
	<polygon class="st0" points="108.5,64.7 115.8,64.7 115.8,65.9 107.1,65.9 107.1,52.9 115.6,52.9 115.6,54 108.5,54 108.5,58.5 
		115.1,58.5 115.1,59.7 108.5,59.7 108.5,64.7 	"/>
	<polygon class="st0" points="100.4,65.9 98.9,65.9 98.9,54 94.4,54 94.4,52.9 104.9,52.9 104.9,54 100.4,54 100.4,65.9 	"/>
	<path class="st0" d="M91.6,57.2c-0.1,0.3-0.3,0.5-0.5,0.7c-0.3,0.2-0.6,0.4-1,0.5c-0.5,0.1-1,0.2-1.5,0.2h-2.3V54h2.3
		c0.6,0,1.2,0.1,1.5,0.2c0.5,0.1,0.8,0.3,1,0.5c0.3,0.2,0.5,0.5,0.5,0.7c0.1,0.3,0.2,0.5,0.2,0.9C91.8,56.7,91.7,57,91.6,57.2
		L91.6,57.2z M92.1,53.7c-0.8-0.5-1.9-0.9-3.3-0.9h-4v13h1.4v-6h2.6c1.4,0,2.5-0.3,3.3-0.9c0.8-0.5,1.2-1.5,1.2-2.6
		C93.4,55.1,92.9,54.3,92.1,53.7L92.1,53.7z"/>
	<path class="st0" d="M80.1,61.5c-0.3,0.6-0.6,1.3-1.1,1.8c-0.5,0.5-1.1,0.9-1.8,1.2S75.7,65,74.8,65s-1.6-0.2-2.4-0.5
		c-0.7-0.3-1.3-0.7-1.8-1.2c-0.5-0.5-0.8-1.1-1.1-1.8c-0.3-0.6-0.4-1.4-0.4-2.2c0-0.7,0.1-1.5,0.4-2.2c0.3-0.7,0.6-1.3,1.1-1.8
		c0.5-0.5,1.1-0.9,1.8-1.2c0.7-0.3,1.5-0.5,2.4-0.5s1.6,0.2,2.4,0.5c0.7,0.3,1.3,0.7,1.8,1.2c0.5,0.5,0.8,1.1,1.1,1.8
		c0.3,0.6,0.4,1.4,0.4,2.2C80.5,60.2,80.3,60.9,80.1,61.5L80.1,61.5z M81.4,56.6c-0.4-0.8-0.8-1.5-1.5-2.2c-0.6-0.6-1.4-1.1-2.3-1.5
		c-0.9-0.4-1.8-0.5-2.8-0.5c-1,0-2,0.2-2.8,0.5c-0.9,0.4-1.6,0.8-2.3,1.5c-0.6,0.6-1.2,1.4-1.5,2.2c-0.4,0.8-0.5,1.7-0.5,2.7
		s0.2,1.9,0.5,2.7s0.9,1.5,1.5,2.2c0.6,0.6,1.4,1.1,2.3,1.5s1.8,0.5,2.8,0.5c1,0,2-0.2,2.8-0.5c0.9-0.4,1.6-0.8,2.3-1.5
		c0.6-0.6,1.2-1.4,1.5-2.2c0.4-0.8,0.5-1.7,0.5-2.7C82,58.4,81.8,57.4,81.4,56.6L81.4,56.6z"/>
	<path class="st0" d="M66.3,63.8c-0.3,0.4-0.5,0.6-0.9,0.9c-0.4,0.3-0.7,0.5-1.2,0.7c-0.5,0.2-0.9,0.4-1.5,0.5
		c-0.5,0.1-1.1,0.2-1.6,0.2c-1,0-2-0.2-2.8-0.5c-0.9-0.4-1.6-0.8-2.3-1.5c-0.6-0.6-1.2-1.4-1.5-2.2s-0.5-1.7-0.5-2.7
		s0.2-1.9,0.5-2.7c0.4-0.8,0.8-1.5,1.5-2.2c0.6-0.6,1.4-1.1,2.3-1.5c0.9-0.4,1.8-0.5,2.8-0.5c0.8,0,1.7,0.2,2.6,0.5
		c0.8,0.3,1.5,0.8,2.2,1.5l0,0l-1.2,0.8c-0.2-0.2-0.4-0.4-0.5-0.6c-0.3-0.2-0.5-0.4-0.8-0.5c-0.3-0.2-0.6-0.3-1-0.4
		c-0.4-0.1-0.7-0.2-1.1-0.2c-0.9,0-1.6,0.2-2.4,0.5c-0.7,0.3-1.3,0.7-1.7,1.2c-0.5,0.5-0.8,1.1-1.1,1.8c-0.3,0.6-0.4,1.4-0.4,2.2
		c0,0.7,0.1,1.5,0.4,2.2c0.3,0.6,0.6,1.3,1.1,1.8c0.5,0.5,1.1,0.9,1.7,1.2c0.7,0.3,1.5,0.5,2.4,0.5c0.4,0,0.7,0,1.1-0.1
		c0.4-0.1,0.7-0.2,1.1-0.3c0.4-0.2,0.6-0.4,1-0.6c0.3-0.3,0.5-0.5,0.8-0.9l0,0L66.3,63.8L66.3,63.8L66.3,63.8z"/>
	<polygon class="st0" points="51.3,65.9 49.8,65.9 49.8,52.9 51.3,52.9 51.3,65.9 	"/>
	<polygon class="st0" points="41.5,64.7 47.9,64.7 47.9,65.9 40.2,65.9 40.2,52.9 41.5,52.9 41.5,64.7 	"/>
	<polygon class="st0" points="30.1,64.7 37.3,64.7 37.3,65.9 28.6,65.9 28.6,52.9 37.2,52.9 37.2,54 30.1,54 30.1,58.5 36.7,58.5 
		36.7,59.7 30.1,59.7 30.1,64.7 	"/>
	<polygon class="st0" points="14.7,52.9 16,52.9 16,58.5 23.5,58.5 23.5,52.9 25,52.9 25,65.9 23.5,65.9 23.5,59.7 16,59.7 16,65.9 
		14.7,65.9 14.7,52.9 	"/>
	<path class="st1" d="M105.6,20.3c0,0.2-0.1,0.3-0.1,0.4c-0.5,1.4-1.3,2.6-2.5,3.8c1.3,0.8,2.3,1.6,2.9,2.5c0.5,0.5,0.7,1.2,1,2
		c18.8-6.3,31.4-12.8,31.4-17c0-4.5-14.5-4.8-35.4-1.7c0.1,0.1,0.3,0.3,0.4,0.4c5.1-0.7,9.7-1.3,13.8-1.5c5.1-0.4,9-0.4,11.8,0.1
		c1.4,0.2,2.5,0.5,3.1,0.9s1,0.8,1,1.3s-0.4,1.1-1,1.8c-0.7,0.7-1.7,1.5-3.2,2.4c-2.3,1.4-5.4,2.9-9.2,4.6c1.6-0.9,3.1-1.8,4.3-2.7
		c1.2-0.9,2.1-1.7,2.7-2.5c0.4-0.5,0.6-0.7,0.6-1.1c0-0.5-0.2-0.5-0.5-0.8c-0.5-0.5-1.5-0.9-2.6-1.2c-2.5-0.7-6-1-10.7-0.9
		c-2.8,0-5.9,0.3-9.3,0.5c0.1,0.1,0.2,0.3,0.3,0.4c11.1-1.1,18.5-0.5,18.5,1.1c0,1.1-3.3,3.4-8.8,5.9c1-0.6,1.9-1.2,2.7-1.8l0,0l0,0
		c0.7-0.5,1.2-1.3,1.2-2c0-0.7-0.5-1.3-1.2-1.5c-2-0.5-4.8-0.9-8.5-0.9c-1.1,0-2.2,0-3.4,0.1c0.1,0.1,0.1,0.2,0.2,0.4
		c5.6-0.2,9,0.5,9,1.8C114,15.9,110.9,18,105.6,20.3L105.6,20.3L105.6,20.3z"/>
	<path class="st1" d="M44.8,26.2c0-0.1,0-0.3,0-0.4c-1.5,0.6-3,1.2-4.4,1.8c-4.6,2.1-8.3,4.1-10.8,6c-1.2,0.9-2.1,1.7-2.6,2.5
		c-0.4,0.5-0.6,0.7-0.6,1.2c0.1,0.4,0.3,0.5,0.5,0.8c0.4,0.3,1.5,0.9,2.6,1.2c0.9,0.3,2,0.5,3.2,0.6c-3.1,0.1-5.6,0-7.6-0.3
		c-1.4-0.2-2.5-0.5-3.1-0.9c-0.6-0.4-1-0.8-1-1.3c0-0.5,0.4-1.1,1-1.8c0.7-0.7,1.7-1.5,3.2-2.4c2.8-1.7,6.8-3.6,12-5.6
		c2.4-0.9,4.9-1.9,7.7-2.8c0-0.2,0.1-0.4,0.1-0.5c-17.9,6-30.1,12.4-30.1,16.4c0,4.6,15.8,4.9,38.1,1.4c-2.1-1.4-3.8-3-5.2-5
		c-0.7-1.1-1.3-2.2-1.7-3.5c-3.8,0-6-0.6-6-1.7c0-1,1.7-2.4,4.7-4c0-0.2,0-0.3,0-0.5c-3.2,1.5-5.7,3-7.7,4.5l0,0l0,0
		c-0.7,0.5-1.2,1.4-1.2,2.1c0,0.7,0.5,1.4,1.3,1.5c0.5,0.2,1.3,0.3,2,0.5c-5-0.1-8-0.7-8-1.9C31.1,32.6,36.4,29.5,44.8,26.2
		L44.8,26.2L44.8,26.2z"/>
	<path class="st1" d="M81.3,16.1v-0.5c-0.7,0.2-1.4,0.3-2.1,0.5c0.1,0.1,0.2,0.3,0.3,0.5C80.1,16.3,80.7,16.2,81.3,16.1L81.3,16.1
		L81.3,16.1z"/>
	<path class="st1" d="M60.7,32.3c-1,0.2-2,0.3-3,0.5c1.4,1.6,3.4,2.5,5.9,2.5c1.5,0,3-0.4,4.3-1.2c0.9-0.5,1.5-1.1,1.8-1.7l0,0
		L60.7,32.3L60.7,32.3L60.7,32.3z"/>
	<path class="st1" d="M81.3,36.2v-4.3c-0.4,1.3-0.9,2.6-1.5,3.6c-0.3,0.4-0.5,0.8-0.7,1.2C79.9,36.6,80.6,36.4,81.3,36.2L81.3,36.2
		L81.3,36.2z"/>
	<path class="st1" d="M81.3,15.2v-0.4c-0.8,0.2-1.6,0.4-2.6,0.5c0.1,0.1,0.1,0.2,0.2,0.3C79.8,15.5,80.6,15.3,81.3,15.2L81.3,15.2
		L81.3,15.2z"/>
	<path class="st1" d="M91.2,33.6c1.9-0.5,3.8-1.1,5.6-1.6c-0.1-0.3-0.3-0.5-0.5-0.8c-0.4-0.4-0.8-0.5-1.4-0.5l0,0h-3.7V33.6
		L91.2,33.6L91.2,33.6z"/>
	<path class="st1" d="M65.9,17.8c-2.8,0.7-5.6,1.5-8.4,2.3c-0.2,0.2-0.3,0.4-0.5,0.6c3.1-0.9,6.3-1.8,9.5-2.6
		C66.4,18,66.1,17.9,65.9,17.8L65.9,17.8L65.9,17.8z"/>
	<path class="st1" d="M81.3,14.5v-0.5c-1,0.2-1.9,0.5-2.9,0.6c0.1,0.2,0.2,0.3,0.3,0.4C79.6,15,80.5,14.8,81.3,14.5L81.3,14.5
		L81.3,14.5z"/>
	<path class="st1" d="M67,18.3c0.2,0.1,0.3,0.2,0.4,0.3c-3.8,1.1-7.6,2.2-11,3.3c0.1-0.2,0.2-0.3,0.3-0.5c0,0,0,0,0.1,0
		C60.1,20.3,63.6,19.3,67,18.3L67,18.3L67,18.3z"/>
	<path class="st1" d="M67.9,18.9c0.1,0.1,0.3,0.2,0.4,0.3l0.1,0.1c-4.5,1.3-8.7,2.6-12.3,3.9c0-0.2,0.1-0.4,0.2-0.5
		c1.1-0.4,2.3-0.8,3.5-1.2C62.3,20.5,65,19.7,67.9,18.9L67.9,18.9L67.9,18.9z"/>
	<path class="st0" d="M61.5,23.8v7.3h9.7c0,3.4-4.5,5.1-7.5,5.1c-9.3,0-9.3-10-9.3-10c0.5-9.6,8.4-10,8.4-10
		c6.3,0.1,7.8,4.3,7.8,4.3l0,0h9.5C75.5,7.3,63,8.6,63,8.6C45.5,9.2,45.9,26.7,45.9,26.7c0.6,16.5,16.6,17.1,16.6,17.1
		c19.6,0,18.9-19.1,18.9-20l0,0H61.5L61.5,23.8L61.5,23.8z"/>
	<path class="st0" d="M94.9,35.7h-4.8v-6.2h4.8c1.7,0,3.1,1.4,3.1,3.1C98,34.3,96.6,35.7,94.9,35.7L94.9,35.7z M90,16.3h3.4
		c1.5,0,2.7,1.3,2.7,2.8s-1.2,2.7-2.7,2.7H90V16.3L90,16.3z M101.1,24.6c3.8-2.9,3.8-5.9,3.8-8.3c0-2.3-2.1-7.7-9.6-7.7H82.5v35.1
		h14.2c3.4,0,9.9-2.8,9.9-10.3C106.6,27.7,104.3,26.3,101.1,24.6L101.1,24.6z"/>
</g>
</svg>
