<svg width="30" height="33" viewBox="0 0 30 33" fill="none" xmlns="http://www.w3.org/2000/svg">
<path d="M14.9251 0.00588106C14.684 0.0366181 14.485 0.223601 14.4195 0.477182L11.9101 9.39091L6.61049 6.31721C6.48408 6.24293 6.33895 6.22244 6.1985 6.25574C6.00889 6.29416 5.84972 6.43247 5.76779 6.62202C5.68586 6.81156 5.69288 7.03441 5.78652 7.21883L8.59551 13.0179L0.449438 15.7637C0.184925 15.838 0 16.0993 0 16.3989C0 16.6986 0.184925 16.9599 0.449438 17.0342L8.59551 19.78L5.78652 25.5791C5.64139 25.8378 5.67884 26.1707 5.87313 26.3859C6.06976 26.5985 6.37406 26.6395 6.61049 26.4807L11.9101 23.407L14.4195 32.3207C14.4874 32.6101 14.7261 32.8125 15 32.8125C15.2739 32.8125 15.5126 32.6101 15.5805 32.3207L18.0899 23.407L23.3895 26.4807C23.6259 26.6395 23.9302 26.5985 24.1269 26.3859C24.3212 26.1707 24.3586 25.8378 24.2135 25.5791L21.4045 19.78L29.5506 17.0342C29.8151 16.9599 30 16.6986 30 16.3989C30 16.0993 29.8151 15.838 29.5506 15.7637L21.4045 13.0179L24.2135 7.21883C24.3235 6.99855 24.3095 6.73216 24.1784 6.52725C24.0473 6.32233 23.8202 6.21732 23.5955 6.25574C23.5229 6.26342 23.4551 6.28391 23.3895 6.31721L18.0899 9.39091L15.5805 0.477182C15.4986 0.164689 15.22 -0.037663 14.9251 0.00588106ZM14.4007 5.02626V14.8211L12.2846 12.5056L12.809 10.6409C12.8254 10.6025 12.8371 10.5589 12.8464 10.5179L14.4007 5.02626ZM15.5993 5.04675L17.1536 10.5384L17.7154 12.5056L15.5993 14.8211V5.04675ZM7.75281 8.4688L11.5356 10.6614L11.1236 12.1572L9.75655 12.608L7.75281 8.4688ZM22.2472 8.4688L20.2434 12.608L18.8764 12.1572L18.4644 10.6614L22.2472 8.4688ZM11.4419 13.4277L13.5581 15.7432H4.62547L9.64419 14.0424L11.4419 13.4277ZM18.5581 13.4277L20.2622 14.0015C20.2809 14.0091 20.2996 14.0168 20.3184 14.022L20.3745 14.0424L25.3933 15.7432H16.4419L18.5581 13.4277ZM4.62547 17.0547H13.5581L11.4419 19.3702L9.81273 18.8169C9.74953 18.7759 9.67931 18.7478 9.60674 18.735L4.62547 17.0547ZM16.4419 17.0547H25.3933L20.4682 18.7145C20.4494 18.7145 20.4307 18.7145 20.412 18.7145C20.3394 18.7273 20.2692 18.7554 20.206 18.7964L18.5581 19.3702L16.4419 17.0547ZM14.4007 17.9768V27.7511L12.2846 20.2923L14.4007 17.9768ZM15.5993 17.9768L17.7154 20.2923L17.191 22.157C17.1746 22.1954 17.1629 22.239 17.1536 22.28L15.5993 27.7716V17.9768ZM9.75655 20.1898L11.1236 20.6406L11.5356 22.1365L7.75281 24.3291L9.75655 20.1898ZM20.2434 20.1898L22.2472 24.3291L18.4644 22.1365L18.8764 20.6406L20.2434 20.1898Z" fill="#af9664"/>
</svg>
